<svg width="30" height="30" viewBox="0 0 30 30" fill="none" xmlns="http://www.w3.org/2000/svg">
<path d="M10.6284 26.6216C10.629 26.9901 10.738 27.351 10.9425 27.6581L11.9438 29.1633C12.1149 29.4206 12.3469 29.6316 12.6192 29.7776C12.8915 29.9236 13.1957 30 13.5047 30H17.1204C17.4294 30 17.7336 29.9236 18.0059 29.7776C18.2783 29.6316 18.5103 29.4206 18.6813 29.1633L19.6827 27.6581C19.8871 27.351 19.9963 26.9904 19.9968 26.6216L19.9991 24.3745H10.6255L10.6284 26.6216ZM5 10.3123C5 12.9121 5.96385 15.2839 7.55229 17.0962C8.52024 18.2006 10.0343 20.508 10.6114 22.4545C10.6137 22.4697 10.6155 22.4849 10.6178 22.5002H20.0067C20.0091 22.4849 20.0108 22.4703 20.0132 22.4545C20.5903 20.508 22.1043 18.2006 23.0723 17.0962C24.6607 15.2839 25.6246 12.9121 25.6246 10.3123C25.6246 4.60601 20.9905 -0.0175278 15.2801 4.99547e-05C9.30303 0.0182136 5 4.86147 5 10.3123ZM15.3123 5.62493C12.7278 5.62493 10.6249 7.72782 10.6249 10.3123C10.6249 10.8303 10.2054 11.2498 9.6874 11.2498C9.16944 11.2498 8.74992 10.8303 8.74992 10.3123C8.74992 6.69366 11.6936 3.74997 15.3123 3.74997C15.8302 3.74997 16.2498 4.16949 16.2498 4.68745C16.2498 5.20541 15.8302 5.62493 15.3123 5.62493Z" fill="#FFD954"/>
</svg>
